<?xml version="1.0" encoding="UTF-8"?>
<svg id="Layer_1" xmlns="http://www.w3.org/2000/svg" version="1.1" viewBox="0 0 195.98 212.42">
  <!-- Generator: Adobe Illustrator 30.2.1, SVG Export Plug-In . SVG Version: 2.1.1 Build 1)  -->
  <path d="M195.94,10.82c-.37-4.06-3.65-7.82-7.38-8.85-4.87-1.33-10.51,1.92-12.21,7.04-.55,1.62-.59,3.32-.59,5.02v140.53c0,5.09-.29,10.18-.92,15.23-.48,4.2-1.29,8.34-2.77,12.36-1.96,5.24-5.61,8.45-11.06,9.7-3.21.77-6.38,1-9.55.85h-50.35v-77.86h-.07c0-.66.04-1.36.04-2.03.04-4.2,1-8.22,2.8-12.06,2.36-5.09,6.01-9.33,9.63-13.57,2.95-3.39,6.2-6.53,9.74-9.26,4.35-3.32,8-7.16,11.06-11.69,4.76-7.12,7.49-14.97,8.23-23.42.63-7.3-1.11-14.2-4.43-20.73-2.21-4.35-5.05-8.23-8.89-11.32-6.45-5.16-13.72-8.67-21.87-10.29-5.02-1-9.74-.37-14.24,2.14-3.95,2.18-7.38,4.98-10.4,8.3q-1.29,1.44-2.88.26c-7.19-5.5-15.31-8.85-24.34-9.63-9.59-.77-18.81.81-27.59,4.91-8.48,3.98-14.97,10.18-19.95,17.96C3.41,31.51,1.12,39.4.27,47.81c-.74,7.67,0,15.16,2.32,22.54,2.54,8,7.12,14.57,13.46,19.99,2.51,2.1,5.27,3.8,8.3,4.87,9.15,3.32,18.4,3.43,27.59.15,11.8-4.17,21.83-15.09,20.65-30.43-.44-5.68-2.21-10.81-5.98-15.16-6.53-7.45-14.57-12.21-24.49-13.39-6.42-.74-12.61,0-18.22,3.61-.22.15-.44.22-.66.22-.63,0-1.18-.55-1.11-1.29.04-.3.07-.55.15-.85.81-3.73,2.62-6.9,5.5-9.37,6.05-5.2,13.13-7.89,21.06-8.3,4.2-.22,8.26.63,12.17,2.14,3.8,1.48,7.01,3.8,9.48,7.08,2.51,3.36,4.32,7.08,5.53,11.06,1.51,5.05,7.49,7.82,11.91,6.38,4.94-1.62,9.11-6.64,7.3-12.25-.37-1.18-1.07-2.54-.66-3.8.92-2.99,2.47-5.61,5.13-7.45,6.42-4.54,14.13-2.54,18.81,1.84,2.07,1.95,3.43,4.35,4.5,6.93,2.36,5.64,2.4,11.21-.55,16.67-1.62,2.99-3.76,5.61-6.16,8-9.37,9.33-18.66,18.74-26.89,29.1-4.5,5.64-6.9,12.13-7.97,19.14-.44,2.88-.59,5.83-.55,8.74v78.67h-9.6c-4.53,0-8.21,3.67-8.21,8.21v3.32c0,4.53,3.67,8.21,8.21,8.21h80.16c6.01,0,11.95-.59,17.67-2.73,7.12-2.66,12.65-7.19,16.75-13.5,4.5-7.04,7.12-14.79,8.48-22.98,1.11-6.45,1.62-12.98,1.62-19.55V13.1c0-.74,0-1.51-.04-2.29ZM27.24,57.73c3.98-1.66,8.04-3.13,12.47-2.91,3.39.18,6.68.92,9.77,2.4,5.9,2.84,7.75,11.54,2.99,16.75-2.84,3.1-6.42,4.68-10.47,5.31-1.25.22-2.54.26-3.84.33-.04.04-.07.04-.11.04-4.24-.07-8.19-1-11.84-3.21-3.73-2.29-5.24-5.68-5.02-9.96.18-4.13,2.18-7.16,6.05-8.74Z"/>
</svg>